<svg role="img" version="1.1" viewBox="0 0 512 512">
<title>DeviantArt icon</title>
<g>
	<path d="M256,460.8c113.13,0,204.8-91.7,204.8-204.8S369.13,51.2,256,51.2C142.9,51.2,51.2,142.9,51.2,256S142.9,460.8,256,460.8z
		 M256,512C114.63,512,0,397.38,0,256C0,114.6,114.63,0,256,0c141.4,0,256,114.6,256,256C512,397.38,397.4,512,256,512z"/>
	<path d="M339.33,128.25h-53.05l-21.88,41.18c-2.7,5.02-7.95,8.15-13.65,8.1h-77.43v65.38h41.9c4.67,0,7.65,4.78,5.5,8.8l-47.4,89.3
		v43.25h52.98l21.82-41.13c2.73-5.02,7.98-8.13,13.67-8.1h77.58v-65.38h-42.05c-4.63,0-7.63-4.8-5.5-8.82l47.52-89.45v-43.1
		L339.33,128.25z"/>
</g>
</svg>
