<svg role="img" version="1.1" viewBox="0 0 512 512">
<title>RSS feed icon</title>
<g>
	<path d="M256,0C114.62,0,0,114.62,0,256s114.62,256,256,256s256-114.62,256-256C512,114.59,397.38,0,256,0z M138.08,415.23
		c-23.01,0-41.7-18.56-41.7-41.54c0-22.85,18.69-41.63,41.7-41.63c23.07,0,41.73,18.78,41.76,41.63
		C179.84,396.67,161.18,415.23,138.08,415.23z M242.85,415.62c0-39.26-15.26-76.16-42.91-103.78
		c-27.65-27.71-64.42-43.01-103.49-43.01V208.8c113.95,0,206.72,92.77,206.72,206.82H242.85z M349.38,415.58
		c0-139.58-113.44-253.15-252.86-253.15l0-60.03c172.61,0,313.09,140.54,313.09,313.18L349.38,415.58z"/>
</g>
</svg>
