<svg viewBox="0 0 505 505" xmlns="http://www.w3.org/2000/svg">
<rect width="100%" height="100%" class="logo-svg-background" fill="#dddddd" />
<g transform="translate(484.4  391)">
  <g transform="matrix(500,0,0,500,-464.5,0)">
    <path d="m0.543-0.217c0-0.043-0.035-0.078-0.078-0.078s-0.079 0.035-0.079 0.078 0.036 0.078 0.079 0.078 0.078-0.035 0.078-0.078zm-0.257-0.29v-0.048h-0.072v0.048h-0.114v0.507h0.729v-0.507h-0.543zm0.314 0.29c0 0.075-0.061 0.136-0.135 0.136-0.075 0-0.136-0.061-0.136-0.136s0.061-0.136 0.136-0.136c0.074 0 0.135 0.061 0.135 0.136zm0.192-0.101h-0.2c-0.03-0.038-0.076-0.062-0.127-0.062-0.052 0-0.098 0.024-0.128 0.062h-0.2v-0.152h0.655v0.152z" fill="#1e1e1e" fill-rule="nonzero"/>
  </g>
</g>
</svg>
